<?xml version="1.0" standalone="no"?>
<!DOCTYPE svg PUBLIC "-//W3C//DTD SVG 20010904//EN"
 "http://www.w3.org/TR/2001/REC-SVG-20010904/DTD/svg10.dtd">
<svg version="1.0" xmlns="http://www.w3.org/2000/svg"
 width="499.000000pt" height="60.000000pt" viewBox="0 0 499.000000 60.000000"
 preserveAspectRatio="xMidYMid meet">

<g transform="translate(0.000000,60.000000) scale(0.100000,-0.100000)"
fill="#000000" stroke="none">
<path d="M1240 350 l0 -230 25 0 25 0 0 119 0 120 29 20 c39 28 85 27 105 -1
12 -17 16 -50 16 -140 l0 -118 30 0 30 0 0 104 c0 127 -6 159 -36 191 -30 33
-102 35 -145 4 l-29 -20 0 90 c0 90 0 91 -25 91 l-25 0 0 -230z"/>
<path d="M3992 568 c-28 -28 -1 -75 37 -63 25 8 34 31 21 56 -12 21 -40 25
-58 7z"/>
<path d="M20 545 c0 -24 2 -25 75 -25 l75 0 0 -200 0 -200 30 0 30 0 0 200 0
200 70 0 c68 0 70 1 70 25 l0 25 -175 0 -175 0 0 -25z"/>
<path d="M1802 396 c3 -193 7 -205 78 -254 47 -31 143 -31 190 1 66 44 75 72
78 260 l4 167 -31 0 -31 0 0 -150 c0 -170 -10 -209 -59 -234 -51 -27 -98 -21
-137 18 l-34 34 0 166 0 166 -31 0 -30 0 3 -174z"/>
<path d="M3482 528 c-7 -7 -12 -26 -12 -42 0 -38 -9 -53 -35 -57 -11 -3 -21
-12 -23 -22 -3 -12 3 -17 22 -17 l26 0 0 -113 c0 -137 9 -157 74 -157 44 0 87
22 73 37 -5 4 -25 8 -45 8 l-37 0 -3 113 -3 112 41 0 c33 0 40 3 40 20 0 17
-7 20 -39 20 l-40 0 -3 52 c-3 53 -14 68 -36 46z"/>
<path d="M4521 521 c-6 -11 -11 -35 -11 -55 0 -30 -3 -35 -27 -38 -34 -4 -38
-32 -5 -36 21 -3 22 -7 22 -108 0 -100 9 -139 34 -156 20 -13 93 -9 106 7 17
20 2 38 -25 31 -50 -13 -55 -2 -55 115 l0 109 45 0 c38 0 45 3 45 20 0 17 -7
20 -44 20 l-45 0 -3 52 c-3 55 -20 72 -37 39z"/>
<path d="M404 421 c-41 -25 -64 -77 -64 -143 0 -125 115 -196 221 -136 48 27
69 70 69 143 0 67 -19 109 -63 135 -42 26 -121 26 -163 1z m133 -36 c43 -30
54 -140 19 -188 -34 -44 -110 -42 -139 5 -36 56 -27 153 16 183 27 19 76 19
104 0z"/>
<path d="M700 280 l0 -160 30 0 30 0 0 110 c0 104 1 112 25 135 18 18 35 25
65 25 36 0 40 2 40 25 0 23 -4 25 -41 25 -33 0 -47 -6 -70 -31 l-29 -31 0 31
c0 26 -4 31 -25 31 l-25 0 0 -160z"/>
<path d="M998 424 c-56 -30 -85 -138 -57 -211 33 -89 144 -121 219 -63 20 15
22 21 13 31 -10 10 -20 9 -49 -5 -65 -30 -118 -3 -134 69 -25 110 45 184 135
143 20 -9 28 -9 38 1 9 10 7 16 -12 32 -29 23 -113 25 -153 3z"/>
<path d="M2240 280 l0 -160 30 0 30 0 0 119 c0 117 1 120 26 140 27 21 69 27
90 13 26 -17 34 -56 34 -161 l0 -111 26 0 26 0 -4 136 c-3 135 -3 136 -31 160
-36 31 -103 33 -140 4 -14 -11 -28 -20 -31 -20 -3 0 -6 9 -6 20 0 15 -7 20
-25 20 l-25 0 0 -160z"/>
<path d="M2616 410 c-103 -91 -47 -290 82 -290 37 0 96 22 107 40 15 24 -12
33 -48 16 -43 -20 -51 -20 -86 -1 -38 19 -55 63 -49 127 7 68 43 103 97 94 75
-11 84 -11 88 1 7 19 -52 43 -106 43 -42 0 -56 -5 -85 -30z"/>
<path d="M2917 422 c-35 -22 -67 -87 -67 -138 1 -51 31 -118 64 -139 42 -28
106 -30 160 -7 74 33 58 64 -20 37 -37 -12 -54 -13 -80 -5 -40 14 -54 29 -64
75 l-8 35 109 0 109 0 0 35 c0 43 -22 88 -52 109 -30 21 -115 20 -151 -2z
m145 -61 c9 -19 15 -38 12 -43 -3 -4 -41 -8 -85 -8 -73 0 -79 2 -79 20 0 12
11 32 25 46 20 20 33 25 68 22 37 -3 44 -7 59 -37z"/>
<path d="M3190 280 l0 -160 30 0 30 0 0 109 c0 101 2 110 25 135 18 20 34 26
65 26 36 0 40 2 40 25 0 22 -4 25 -39 25 -28 0 -45 -7 -62 -24 -26 -27 -39
-25 -39 5 0 14 -7 19 -25 19 l-25 0 0 -160z"/>
<path d="M3703 419 c-20 -12 -30 -26 -26 -35 7 -18 32 -18 57 1 49 37 108 9
110 -51 l1 -39 -55 -6 c-61 -7 -114 -30 -124 -54 -12 -32 -6 -75 14 -95 28
-28 108 -28 144 1 l27 21 6 -21 c3 -12 13 -21 24 -21 18 0 19 9 19 120 0 169
-18 200 -117 200 -31 0 -59 -8 -80 -21z m147 -193 c0 -35 -21 -57 -69 -69 -72
-18 -98 52 -31 85 19 10 50 18 68 18 30 0 32 -2 32 -34z"/>
<path d="M3990 280 l0 -160 30 0 30 0 0 160 0 160 -30 0 -30 0 0 -160z"/>
<path d="M4140 280 l0 -160 30 0 30 0 0 119 c0 117 1 120 26 140 27 21 69 27
90 13 26 -17 34 -56 34 -161 l0 -111 26 0 26 0 -4 136 c-3 135 -3 136 -31 160
-36 31 -103 33 -140 4 -14 -11 -28 -20 -31 -20 -3 0 -6 9 -6 20 0 15 -7 20
-25 20 l-25 0 0 -160z"/>
<path d="M4680 433 c0 -4 27 -72 61 -151 l62 -142 -23 -53 c-12 -28 -24 -58
-27 -65 -4 -10 2 -13 22 -10 27 3 33 15 116 213 80 193 86 210 67 213 -11 2
-24 0 -29 -5 -5 -5 -29 -58 -53 -119 l-45 -109 -16 40 c-67 165 -81 190 -108
193 -15 2 -27 0 -27 -5z"/>
<path d="M1570 305 c0 -24 2 -25 75 -25 73 0 75 1 75 25 0 24 -2 25 -75 25
-73 0 -75 -1 -75 -25z"/>
</g>
</svg>
